<svg width="962" height="962" viewBox="0 0 962 962" fill="none" xmlns="http://www.w3.org/2000/svg">
<g clip-path="url(#clip0_25_2)">
<path fill-rule="evenodd" clip-rule="evenodd" d="M704.035 54.8353C635.209 18.8148 558.682 0 481 0V146C535.103 146 588.401 159.104 636.336 184.191C684.271 209.278 725.417 245.602 756.255 290.056C787.093 334.51 806.705 385.772 813.414 439.457C820.123 493.143 813.73 547.654 794.781 598.331C775.832 649.007 744.891 694.339 704.604 730.452C664.317 766.564 615.883 792.382 563.444 805.697C511.005 819.012 456.121 819.428 403.486 806.909C350.852 794.39 302.032 769.31 261.202 733.812L165.41 843.993C224.034 894.961 294.13 930.973 369.704 948.947C445.279 966.921 524.082 966.324 599.375 947.206C674.668 928.089 744.211 891.019 802.055 839.168C859.9 787.317 904.326 722.228 931.533 649.466C958.741 576.704 967.92 498.435 958.287 421.352C948.654 344.269 920.495 270.667 876.217 206.839C831.939 143.01 772.861 90.8559 704.035 54.8353Z" fill="#F4C51D"/>
<path d="M236.656 465.141C236.281 464.609 236.094 463.984 236.094 463.266C236.094 462.547 236.609 461.75 237.641 460.875L249.078 451.031C250.734 449.562 253.031 448.812 255.969 448.781H262.859C264.141 448.781 265.219 449.219 266.094 450.094C266.969 450.969 267.406 452.016 267.406 453.234V511.594C267.406 512.812 266.953 513.859 266.047 514.734C265.141 515.578 264.078 516 262.859 516H254.141C252.922 516 251.875 515.594 251 514.781C250.156 513.938 249.734 512.906 249.734 511.688V466.359L244.344 470.297C243.719 470.734 243 470.875 242.188 470.719C241.375 470.562 240.719 470.203 240.219 469.641L236.656 465.141ZM275.094 457.641V453.234C275.094 452.016 275.547 450.969 276.453 450.094C277.359 449.219 278.422 448.781 279.641 448.781H329.844C331.062 448.781 332.109 449.219 332.984 450.094C333.891 450.969 334.344 452.016 334.344 453.234V457.547C334.344 459.703 333.391 462.547 331.484 466.078L306.875 511.594C305.281 514.531 303.234 516 300.734 516H291.125C289.875 516 288.984 515.594 288.453 514.781C287.953 513.938 287.953 513.031 288.453 512.062L315.547 462.047H279.641C278.359 462.047 277.281 461.625 276.406 460.781C275.531 459.906 275.094 458.859 275.094 457.641ZM346.625 500.812C350.656 500.812 352.672 502.297 352.672 505.266C352.672 506.078 352.453 507.031 352.016 508.125L346.438 522.234C345.781 523.766 344.797 525.047 343.484 526.078C342.172 527.109 340.688 527.625 339.031 527.625H337.203C335.234 527.625 333.984 527.203 333.453 526.359C332.953 525.547 332.703 524.703 332.703 523.828C332.703 522.953 332.766 522.109 332.891 521.297L335.656 506.203C335.938 504.734 336.797 503.469 338.234 502.406C339.672 501.344 341.188 500.812 342.781 500.812H346.625ZM391.156 499.781V494.203C391.156 491.453 392.125 489.016 394.062 486.891L425.047 451.688C426.766 449.781 429.203 448.812 432.359 448.781H447.031C448.312 448.781 449.391 449.219 450.266 450.094C451.141 450.969 451.578 452.016 451.578 453.234V490.922H456.734C458.016 490.922 459.094 491.359 459.969 492.234C460.844 493.109 461.281 494.156 461.281 495.375V499.781C461.281 501 460.828 502.047 459.922 502.922C459.016 503.766 457.953 504.188 456.734 504.188H451.578V511.594C451.578 512.812 451.125 513.859 450.219 514.734C449.312 515.578 448.25 516 447.031 516H438.312C437.094 516 436.047 515.594 435.172 514.781C434.328 513.938 433.906 512.906 433.906 511.688V504.188H395.703C394.484 504.188 393.422 503.766 392.516 502.922C391.609 502.047 391.156 501 391.156 499.781ZM410 490.922H433.906V463.781L410 490.922ZM465.078 511.594V504.75C465.078 500.781 465.891 497.344 467.516 494.438C469.172 491.531 471.281 489.25 473.844 487.594C476.406 485.938 479.25 484.516 482.375 483.328C485.5 482.141 488.625 481.188 491.75 480.469C494.906 479.719 497.766 478.969 500.328 478.219C506.141 476.469 509.047 473.984 509.047 470.766C509.047 467.266 508.141 464.875 506.328 463.594C504.516 462.312 501.453 461.672 497.141 461.672H493.812C487.781 461.672 483.812 463.594 481.906 467.438C480.5 470.375 478.391 471.844 475.578 471.844H470C468.469 471.844 467.281 471.297 466.438 470.203C465.594 469.109 465.172 467.922 465.172 466.641C465.172 463.078 466.531 459.875 469.25 457.031C472 454.156 475.406 452 479.469 450.562C483.531 449.125 487.766 448.406 492.172 448.406H498.5C512.219 448.406 520.906 452.219 524.562 459.844C526 462.844 526.719 466.328 526.719 470.297C526.719 474.266 525.906 477.641 524.281 480.422C522.656 483.203 520.562 485.422 518 487.078C515.438 488.703 512.578 490.109 509.422 491.297C506.297 492.484 503.172 493.469 500.047 494.25C496.922 495 494.078 495.719 491.516 496.406C485.672 498.031 482.75 500.141 482.75 502.734H521.656C522.938 502.734 524 503.172 524.844 504.047C525.719 504.922 526.156 505.969 526.156 507.188V511.594C526.156 512.812 525.703 513.859 524.797 514.734C523.922 515.578 522.875 516 521.656 516H469.625C468.406 516 467.344 515.578 466.438 514.734C465.531 513.859 465.078 512.812 465.078 511.594ZM559.297 516.375C551.422 516.375 544.984 514.609 539.984 511.078C534.984 507.516 532.484 502.297 532.484 495.422C532.484 488.547 535.5 483.5 541.531 480.281C537.312 476.812 535.203 472.688 535.203 467.906C535.203 464.438 535.906 461.406 537.312 458.812C538.719 456.219 540.672 454.188 543.172 452.719C548.078 449.844 554.188 448.406 561.5 448.406H570.312C577.688 448.406 583.812 449.844 588.688 452.719C591.156 454.188 593.094 456.219 594.5 458.812C595.938 461.406 596.656 464.438 596.656 467.906C596.656 472.719 594.531 476.844 590.281 480.281C596.312 483.469 599.328 488.516 599.328 495.422C599.328 502.297 596.828 507.516 591.828 511.078C586.828 514.609 580.391 516.375 572.516 516.375H559.297ZM552.828 489.984C551.047 491.078 550.156 493 550.156 495.75C550.156 498.5 551.047 500.422 552.828 501.516C554.641 502.609 557.469 503.156 561.312 503.156H570.5C574.344 503.156 577.156 502.609 578.938 501.516C580.75 500.422 581.656 498.5 581.656 495.75C581.656 493 580.75 491.078 578.938 489.984C577.156 488.891 574.344 488.344 570.5 488.344H561.312C557.469 488.344 554.641 488.891 552.828 489.984ZM554.938 463.266C553.156 464.297 552.266 466.062 552.266 468.562C552.266 471.062 553.156 472.844 554.938 473.906C556.75 474.969 559.578 475.5 563.422 475.5H568.203C572.047 475.5 574.859 474.969 576.641 473.906C578.453 472.844 579.359 471.062 579.359 468.562C579.359 466.062 578.453 464.297 576.641 463.266C574.859 462.203 572.047 461.672 568.203 461.672H563.422C559.578 461.672 556.75 462.203 554.938 463.266ZM641.609 528.938V467.531C641.609 466.688 641.875 466 642.406 465.469C642.969 464.906 643.656 464.625 644.469 464.625H653.516C654.328 464.625 655 464.906 655.531 465.469C656.094 466 656.375 466.688 656.375 467.531V468.938C661.312 465.438 667.047 463.688 673.578 463.688C680.109 463.688 685.562 466 689.938 470.625C694.312 475.219 696.5 481.812 696.5 490.406C696.5 498.969 694.234 505.531 689.703 510.094C685.172 514.656 679.062 516.938 671.375 516.938C667.406 516.938 662.891 516.141 657.828 514.547V528.938C657.828 529.781 657.547 530.469 656.984 531C656.453 531.562 655.781 531.844 654.969 531.844H644.469C643.656 531.844 642.969 531.562 642.406 531C641.875 530.469 641.609 529.781 641.609 528.938ZM657.828 503.719C661.859 505 665.25 505.641 668 505.641C672.281 505.641 675.312 504.422 677.094 501.984C678.906 499.547 679.812 495.656 679.812 490.312C679.812 484.969 678.953 481.094 677.234 478.688C675.547 476.25 673 475.031 669.594 475.031C666.219 475.031 662.297 476.438 657.828 479.25V503.719ZM715.344 500.812C719.562 500.812 721.672 502.938 721.672 507.188V510.141C721.672 512.109 721.125 513.656 720.031 514.781C718.969 515.906 717.406 516.469 715.344 516.469H709.578C707.516 516.469 705.938 515.906 704.844 514.781C703.781 513.656 703.25 512.109 703.25 510.141V507.188C703.25 505.125 703.797 503.547 704.891 502.453C705.984 501.359 707.547 500.812 709.578 500.812H715.344Z" fill="black"/>
</g>
<defs>
<clipPath id="clip0_25_2">
<rect width="962" height="962" fill="white"/>
</clipPath>
</defs>
</svg>
