<svg width="8" height="8" viewBox="0 0 8 8" fill="none" xmlns="http://www.w3.org/2000/svg">
<path d="M2.97 6.89001C2.90667 6.89001 2.84333 6.86667 2.79333 6.81667C2.69667 6.72001 2.69667 6.56001 2.79333 6.46334L4.96667 4.29001C5.12667 4.13001 5.12667 3.87001 4.96667 3.71001L2.79333 1.53667C2.69667 1.44001 2.69667 1.28001 2.79333 1.18334C2.89 1.08667 3.05 1.08667 3.14667 1.18334L5.32 3.35667C5.49 3.52667 5.58667 3.75667 5.58667 4.00001C5.58667 4.24334 5.49333 4.47334 5.32 4.64334L3.14667 6.81667C3.09667 6.86334 3.03333 6.89001 2.97 6.89001Z" fill="#5F5C5C"/>
</svg>
