<svg width="20" height="20" viewBox="0 0 20 20" fill="none" xmlns="http://www.w3.org/2000/svg">
<path d="M18.3333 8.33332V10.8333C18.3333 14.1667 16.6667 15.8333 13.3333 15.8333H12.9167C12.6583 15.8333 12.4083 15.9583 12.25 16.1667L11 17.8333C10.45 18.5667 9.55001 18.5667 9.00001 17.8333L7.75001 16.1667C7.61667 15.9833 7.30834 15.8333 7.08334 15.8333H6.66667C3.33334 15.8333 1.66667 15 1.66667 10.8333V6.66666C1.66667 3.33332 3.33334 1.66666 6.66667 1.66666H11.6667" stroke="#292D32" stroke-width="1.5" stroke-miterlimit="10" stroke-linecap="round" stroke-linejoin="round"/>
<path d="M16.25 5.83332C17.4006 5.83332 18.3333 4.90058 18.3333 3.74999C18.3333 2.5994 17.4006 1.66666 16.25 1.66666C15.0994 1.66666 14.1667 2.5994 14.1667 3.74999C14.1667 4.90058 15.0994 5.83332 16.25 5.83332Z" stroke="#F00000" stroke-width="1.5" stroke-linecap="round" stroke-linejoin="round"/>
<path d="M13.3304 9.16667H13.3379" stroke="#292D32" stroke-width="1.5" stroke-linecap="round" stroke-linejoin="round"/>
<path d="M9.99624 9.16667H10.0037" stroke="#292D32" stroke-width="1.5" stroke-linecap="round" stroke-linejoin="round"/>
<path d="M6.66209 9.16667H6.66957" stroke="#292D32" stroke-width="1.5" stroke-linecap="round" stroke-linejoin="round"/>
</svg>
