<svg width="30" height="30" viewBox="0 0 30 30" fill="none" xmlns="http://www.w3.org/2000/svg">
<path d="M18.125 11.5625H2.50001C1.98751 11.5625 1.56251 11.1375 1.56251 10.625C1.56251 10.1125 1.98751 9.6875 2.50001 9.6875H18.125C18.6375 9.6875 19.0625 10.1125 19.0625 10.625C19.0625 11.1375 18.6375 11.5625 18.125 11.5625Z" fill="white"/>
<path d="M10 21.5625H7.5C6.9875 21.5625 6.5625 21.1375 6.5625 20.625C6.5625 20.1125 6.9875 19.6875 7.5 19.6875H10C10.5125 19.6875 10.9375 20.1125 10.9375 20.625C10.9375 21.1375 10.5125 21.5625 10 21.5625Z" fill="white"/>
<path d="M18.125 21.5625H13.125C12.6125 21.5625 12.1875 21.1375 12.1875 20.625C12.1875 20.1125 12.6125 19.6875 13.125 19.6875H18.125C18.6375 19.6875 19.0625 20.1125 19.0625 20.625C19.0625 21.1375 18.6375 21.5625 18.125 21.5625Z" fill="white"/>
<path d="M21.95 26.5625H8.05001C3.07501 26.5625 1.56251 25.0625 1.56251 20.1375V9.8625C1.56251 4.9375 3.07501 3.4375 8.05001 3.4375H18.125C18.6375 3.4375 19.0625 3.8625 19.0625 4.375C19.0625 4.8875 18.6375 5.3125 18.125 5.3125H8.05001C4.12501 5.3125 3.43751 5.9875 3.43751 9.8625V20.125C3.43751 24 4.12501 24.675 8.05001 24.675H21.9375C25.8625 24.675 26.55 24 26.55 20.125V17.525C26.55 17.0125 26.975 16.5875 27.4875 16.5875C28 16.5875 28.425 17.0125 28.425 17.525V20.125C28.4375 25.0625 26.925 26.5625 21.95 26.5625Z" fill="white"/>
<path d="M25 12.8125C24.4875 12.8125 24.0625 12.3875 24.0625 11.875V4.37498C24.0625 3.99998 24.2875 3.64998 24.6375 3.51248C24.9875 3.37498 25.3875 3.44999 25.6625 3.71249L28.1625 6.21248C28.525 6.57498 28.525 7.17499 28.1625 7.53749C27.8 7.89999 27.2 7.89999 26.8375 7.53749L25.9375 6.63748V11.875C25.9375 12.3875 25.5125 12.8125 25 12.8125Z" fill="white"/>
<path d="M22.5 7.81249C22.2625 7.81249 22.025 7.72499 21.8375 7.53749C21.475 7.17499 21.475 6.57499 21.8375 6.21249L24.3375 3.71249C24.7 3.34999 25.3 3.34999 25.6625 3.71249C26.025 4.07499 26.025 4.67499 25.6625 5.03749L23.1625 7.53749C22.975 7.72499 22.7375 7.81249 22.5 7.81249Z" fill="white"/>
</svg>
