<svg width="30" height="30" viewBox="0 0 30 30" fill="none" xmlns="http://www.w3.org/2000/svg">
<path d="M18.125 11.5625H2.5C1.9875 11.5625 1.5625 11.1375 1.5625 10.625C1.5625 10.1125 1.9875 9.6875 2.5 9.6875H18.125C18.6375 9.6875 19.0625 10.1125 19.0625 10.625C19.0625 11.1375 18.6375 11.5625 18.125 11.5625Z" fill="#A4A4A4"/>
<path d="M10 21.5625H7.5C6.9875 21.5625 6.5625 21.1375 6.5625 20.625C6.5625 20.1125 6.9875 19.6875 7.5 19.6875H10C10.5125 19.6875 10.9375 20.1125 10.9375 20.625C10.9375 21.1375 10.5125 21.5625 10 21.5625Z" fill="#A4A4A4"/>
<path d="M18.125 21.5625H13.125C12.6125 21.5625 12.1875 21.1375 12.1875 20.625C12.1875 20.1125 12.6125 19.6875 13.125 19.6875H18.125C18.6375 19.6875 19.0625 20.1125 19.0625 20.625C19.0625 21.1375 18.6375 21.5625 18.125 21.5625Z" fill="#A4A4A4"/>
<path d="M21.95 26.5625H8.05C3.075 26.5625 1.5625 25.0625 1.5625 20.1375V9.8625C1.5625 4.9375 3.075 3.4375 8.05 3.4375H18.125C18.6375 3.4375 19.0625 3.8625 19.0625 4.375C19.0625 4.8875 18.6375 5.3125 18.125 5.3125H8.05C4.125 5.3125 3.4375 5.9875 3.4375 9.8625V20.125C3.4375 24 4.125 24.675 8.05 24.675H21.9375C25.8625 24.675 26.55 24 26.55 20.125V17.525C26.55 17.0125 26.975 16.5875 27.4875 16.5875C28 16.5875 28.425 17.0125 28.425 17.525V20.125C28.4375 25.0625 26.925 26.5625 21.95 26.5625Z" fill="#A4A4A4"/>
<path d="M25 12.8124C24.4875 12.8124 24.0625 12.3874 24.0625 11.8749V4.37492C24.0625 3.99992 24.2875 3.64992 24.6375 3.51242C24.9875 3.37492 25.3875 3.44992 25.6625 3.71242L28.1625 6.21242C28.525 6.57492 28.525 7.17492 28.1625 7.53742C27.8 7.89992 27.2 7.89992 26.8375 7.53742L25.9375 6.63742V11.8749C25.9375 12.3874 25.5125 12.8124 25 12.8124Z" fill="#A4A4A4"/>
<path d="M22.5 7.81255C22.2625 7.81255 22.025 7.72505 21.8375 7.53755C21.475 7.17505 21.475 6.57505 21.8375 6.21255L24.3375 3.71255C24.7 3.35005 25.3 3.35005 25.6625 3.71255C26.025 4.07505 26.025 4.67505 25.6625 5.03755L23.1625 7.53755C22.975 7.72505 22.7375 7.81255 22.5 7.81255Z" fill="#A4A4A4"/>
</svg>
