<svg width="28" height="28" viewBox="0 0 28 28" fill="none" xmlns="http://www.w3.org/2000/svg">
<path d="M14 26.5417C13.1833 26.5417 12.355 26.2267 11.7367 25.6083L9.74164 23.6367C9.25164 23.1467 8.57501 22.8783 7.88668 22.8783H7C4.585 22.8783 2.625 20.93 2.625 18.5383V5.79834C2.625 3.40668 4.585 1.45834 7 1.45834H21C23.415 1.45834 25.375 3.40668 25.375 5.79834V18.5267C25.375 20.9183 23.415 22.8667 21 22.8667H20.1133C19.425 22.8667 18.7484 23.1467 18.2584 23.625L16.2633 25.5967C15.645 26.2267 14.8167 26.5417 14 26.5417ZM7 3.20834C5.55333 3.20834 4.375 4.37501 4.375 5.79834V18.5267C4.375 19.9617 5.55333 21.1167 7 21.1167H7.88668C9.04168 21.1167 10.1616 21.5833 10.9783 22.3883L12.9733 24.36C13.545 24.92 14.4667 24.92 15.0384 24.36L17.0333 22.3883C17.85 21.5833 18.97 21.1167 20.125 21.1167H21C22.4467 21.1167 23.625 19.95 23.625 18.5267V5.79834C23.625 4.36334 22.4467 3.20834 21 3.20834H7V3.20834Z" fill="white"/>
<path d="M14.0815 11.3167C14.0581 11.3167 14.0231 11.3167 13.9998 11.3167C13.9648 11.3167 13.9181 11.3167 13.8831 11.3167C12.1798 11.2583 10.8498 9.88166 10.8498 8.16666C10.8498 6.42833 12.2615 5.01666 13.9998 5.01666C15.7381 5.01666 17.1498 6.42833 17.1498 8.16666C17.1381 9.88166 15.8081 11.2583 14.1048 11.3167C14.1048 11.3167 14.0931 11.3167 14.0815 11.3167ZM13.9998 6.76666C13.2298 6.76666 12.5998 7.39666 12.5998 8.16666C12.5998 8.925 13.1948 9.54333 13.9415 9.56666C13.9415 9.555 14.0115 9.555 14.0931 9.56666C14.8281 9.52 15.3998 8.91333 15.3998 8.16666C15.3998 7.39666 14.7698 6.76666 13.9998 6.76666Z" fill="white"/>
<path d="M14 19.4833C12.67 19.4833 11.34 19.1333 10.3017 18.445C9.32169 17.7917 8.75 16.8467 8.75 15.8433C8.75 14.84 9.31002 13.8833 10.3017 13.23C12.3784 11.8533 15.6216 11.8533 17.6866 13.23C18.6666 13.8833 19.2383 14.84 19.2383 15.8317C19.2383 16.835 18.6783 17.78 17.6866 18.445C16.66 19.145 15.33 19.4833 14 19.4833ZM11.27 14.6883C10.7683 15.0267 10.5 15.435 10.5 15.8433C10.5 16.2517 10.78 16.66 11.27 16.9983C12.7516 17.99 15.2367 17.99 16.7184 16.9983C17.22 16.66 17.5 16.2517 17.4883 15.8433C17.4883 15.435 17.2084 15.0267 16.7184 14.6883C15.2484 13.6967 12.7516 13.6967 11.27 14.6883Z" fill="white"/>
</svg>
