<svg width="91" height="91" viewBox="0 0 91 91" fill="none" xmlns="http://www.w3.org/2000/svg">
<circle cx="45.5" cy="45.5" r="45.5" fill="#D9D9D9"/>
<path d="M45.5 46.7812C40.0846 46.7812 35.6771 42.3737 35.6771 36.9583C35.6771 31.5429 40.0846 27.1354 45.5 27.1354C50.9155 27.1354 55.323 31.5429 55.323 36.9583C55.323 42.3737 50.9155 46.7812 45.5 46.7812ZM45.5 29.6979C41.5025 29.6979 38.2396 32.9608 38.2396 36.9583C38.2396 40.9558 41.5025 44.2187 45.5 44.2187C49.4975 44.2187 52.7605 40.9558 52.7605 36.9583C52.7605 32.9608 49.4975 29.6979 45.5 29.6979Z" fill="#292D32"/>
<path d="M60.1748 63.8646C59.4744 63.8646 58.8936 63.2837 58.8936 62.5833C58.8936 56.6896 52.8803 51.9062 45.5003 51.9062C38.1203 51.9062 32.1069 56.6896 32.1069 62.5833C32.1069 63.2837 31.5261 63.8646 30.8257 63.8646C30.1253 63.8646 29.5444 63.2837 29.5444 62.5833C29.5444 55.2887 36.7023 49.3438 45.5003 49.3438C54.2982 49.3438 61.4561 55.2887 61.4561 62.5833C61.4561 63.2837 60.8753 63.8646 60.1748 63.8646Z" fill="#292D32"/>
</svg>
