<svg width="36" height="36" viewBox="0 0 36 36" fill="none" xmlns="http://www.w3.org/2000/svg">
<path d="M33 15V19.5C33 25.5 30 28.5 24 28.5H23.25C22.785 28.5 22.335 28.725 22.05 29.1L19.8 32.1C18.81 33.42 17.19 33.42 16.2 32.1L13.95 29.1C13.71 28.77 13.155 28.5 12.75 28.5H12C6 28.5 3 27 3 19.5V12C3 6 6 3 12 3H21" stroke="#292D32" stroke-width="1.5" stroke-miterlimit="10" stroke-linecap="round" stroke-linejoin="round"/>
<path d="M29.25 10.5C31.3211 10.5 33 8.82107 33 6.75C33 4.67893 31.3211 3 29.25 3C27.1789 3 25.5 4.67893 25.5 6.75C25.5 8.82107 27.1789 10.5 29.25 10.5Z" stroke="#F00000" stroke-width="1.5" stroke-linecap="round" stroke-linejoin="round"/>
<path d="M23.9947 16.5H24.0082" stroke="#292D32" stroke-width="1.5" stroke-linecap="round" stroke-linejoin="round"/>
<path d="M17.9932 16.5H18.0067" stroke="#292D32" stroke-width="1.5" stroke-linecap="round" stroke-linejoin="round"/>
<path d="M11.9918 16.5H12.0052" stroke="#292D32" stroke-width="1.5" stroke-linecap="round" stroke-linejoin="round"/>
</svg>
